<svg width="173" height="58" viewBox="0 0 173 58" fill="none" xmlns="http://www.w3.org/2000/svg">
<path d="M117.46 23.2415C117.416 23.1068 117.242 23.0068 116.951 22.9438H116.751L116.458 23.009C116.328 23.0438 116.125 23.1046 115.852 23.1915C115.608 23.2719 115.417 23.3327 115.25 23.374L114.967 23.4479C114.968 23.2429 114.988 23.0384 115.028 22.8373C115.078 22.4767 115.146 22.0334 115.224 21.5076C115.302 20.9818 115.385 20.482 115.467 20.0018C115.55 19.5217 115.615 19.1675 115.665 18.9394C115.691 18.8068 115.721 18.6569 115.754 18.4831C115.784 18.3279 115.805 18.1712 115.817 18.0137C115.841 17.8682 115.871 17.6813 115.913 17.4532C115.954 17.225 115.993 17.0077 116.032 16.8013C116.102 16.517 116.135 16.2249 116.13 15.9322L116.11 15.7736L115.943 15.4911C115.86 15.4003 115.752 15.3356 115.633 15.3051C115.514 15.2746 115.388 15.2796 115.272 15.3195L115.185 15.3434L114.967 15.4346L114.837 15.5976C114.711 15.8564 114.626 16.1336 114.587 16.4189C114.5 16.8535 114.411 17.3771 114.326 17.9877C114.292 18.205 114.237 18.5504 114.161 18.998C114.085 19.4456 114.013 19.8997 113.944 20.3669C113.874 20.834 113.783 21.2968 113.703 21.7901C113.622 22.2833 113.566 22.6744 113.533 22.9634L113.383 23.9802L112.873 24.1628C112.159 24.3945 111.172 24.727 109.913 25.1601L106.854 26.216C106.446 26.3725 106.096 26.4942 105.811 26.5854L105.359 26.7266C105.335 26.6245 105.398 25.9575 105.553 24.7212C105.707 23.4848 105.907 21.9769 106.155 20.1909C106.233 19.6115 106.294 19.1537 106.337 18.8177C106.38 18.4787 106.411 18.2267 106.428 18.0594C106.444 17.9353 106.444 17.8097 106.428 17.6857L106.38 17.4553C106.356 17.3449 106.32 17.2372 106.274 17.1338L106.139 16.9838C106.05 16.9262 105.95 16.888 105.845 16.8715C105.74 16.855 105.633 16.8607 105.531 16.8882L105.446 16.91C105.295 16.9532 105.167 17.0528 105.088 17.1881C104.959 17.4211 104.857 17.6674 104.781 17.9225C104.637 18.3036 104.515 18.6924 104.414 19.0871C104.354 19.2988 104.332 19.5196 104.351 19.7389L104.364 19.8758L104.525 20.1344L104.662 20.3082L104.423 22.0464C104.187 23.7369 104.011 25.218 103.895 26.4898C103.871 26.7071 103.854 26.8766 103.838 27.0265C103.834 27.1122 103.821 27.1972 103.801 27.2807C103.728 27.3328 103.648 27.3738 103.562 27.4024C103.419 27.4632 103.239 27.5306 103.024 27.6023C102.808 27.674 102.589 27.7805 102.339 27.8761C102.089 27.9717 101.885 28.0477 101.715 28.1085C101.546 28.1694 101.37 28.2541 101.177 28.3258C100.983 28.3975 100.816 28.4432 100.673 28.4823C100.486 28.5453 100.349 28.5974 100.26 28.6365L99.9946 28.8212C99.8655 28.9104 99.7674 29.0377 99.714 29.1853C99.6606 29.3329 99.6547 29.4935 99.697 29.6447C99.7245 29.7826 99.7959 29.9078 99.9004 30.0018C100.005 30.0958 100.137 30.1534 100.277 30.1662L100.468 30.1857L100.577 30.1575L100.781 30.0923C100.875 30.0597 101.044 29.988 101.294 29.875L101.34 29.862C101.67 29.7121 102.009 29.5687 102.352 29.4274C102.695 29.2862 102.989 29.1776 103.221 29.0928C103.454 29.0081 103.595 28.9581 103.623 28.9516C103.651 28.9451 103.623 29.108 103.608 29.3731C103.593 29.6382 103.575 29.9706 103.554 30.3661C103.358 33.0386 103.198 35.7749 103.073 38.5749C102.949 41.3749 102.907 43.2037 102.947 44.0612C102.954 44.1976 102.975 44.333 103.008 44.4653L103.102 44.6956C103.168 44.8076 103.269 44.8953 103.389 44.9455C103.534 45.0339 103.708 45.0634 103.875 45.0281L104.158 44.8608C104.265 44.7629 104.346 44.6388 104.391 44.5005C104.436 44.3623 104.445 44.2147 104.416 44.0721C104.345 43.3927 104.403 41.1678 104.59 37.3972C104.635 36.2196 104.7 34.9499 104.786 33.5883C104.871 32.2267 104.952 31.0462 105.029 30.0467C105.107 29.0494 105.157 28.4996 105.177 28.404C105.233 28.3736 105.648 28.2172 106.426 27.9347C107.204 27.6523 108.11 27.3329 109.14 26.9765L111.86 26.04C112.486 25.8228 112.879 25.7011 113.04 25.6598L113.125 25.6359V25.6598V25.7054V25.775V25.8923L113.11 26.0596L113.079 26.3008L113.038 26.6245C113.023 26.7462 113.003 26.8787 112.979 27.0243L112.934 27.385C112.317 32.6982 111.81 39.0978 111.413 46.5838C111.356 47.7767 111.315 48.7088 111.287 49.3737C111.258 50.0385 111.248 50.5187 111.248 50.8142C111.24 51.0285 111.258 51.2428 111.3 51.453L111.487 51.7616L111.808 51.968H112.106L112.282 51.9224L112.543 51.7594L112.716 51.4118L112.732 51.0619C112.686 50.9011 112.714 49.8669 112.808 47.9592C112.901 46.0515 113.025 43.8678 113.19 41.4147C113.355 38.9616 113.512 36.7345 113.67 34.7399C113.798 33.3435 113.953 31.7711 114.137 30.0228C114.321 28.2744 114.493 26.76 114.652 25.4795L114.698 25.1188L115.513 24.858C116.165 24.6538 116.632 24.4995 116.892 24.4018C117.06 24.3528 117.216 24.2724 117.353 24.1649C117.438 24.0772 117.499 23.9687 117.529 23.85C117.56 23.7314 117.558 23.607 117.525 23.4892L117.46 23.2415Z" fill="#2B2C2C"/>
<path d="M172.977 17.0447L172.74 16.7579C172.619 16.709 172.485 16.7028 172.359 16.7405C172.144 16.8089 171.944 16.9173 171.768 17.0599C171.517 17.2519 171.23 17.3908 170.923 17.4684C170.531 17.5515 170.131 17.5865 169.73 17.5727C169.196 17.5676 168.668 17.4622 168.173 17.262C167.761 17.063 167.305 16.9746 166.849 17.0056L166.647 17.036C166.307 17.1346 165.995 17.3126 165.737 17.5553C165.287 17.9882 164.892 18.4741 164.559 19.0024L164.383 19.2197L164.348 19.2761V19.2522C164.348 19.2044 164.385 19.0198 164.446 18.6917C164.507 18.3636 164.579 17.9681 164.663 17.4966C164.872 16.4044 164.965 15.7837 164.942 15.6345L164.924 15.5694C164.878 15.3863 164.77 15.225 164.618 15.1131C164.539 15.0555 164.447 15.0178 164.35 15.0031C164.253 14.9883 164.154 14.997 164.062 15.0283C163.875 15.0761 163.714 15.1935 163.612 15.3564C163.444 15.6623 163.311 15.9859 163.214 16.3211C162.882 17.3539 162.766 18.0587 162.864 18.4353L162.91 18.6091L162.93 18.7677C162.923 18.8959 162.91 19.0236 162.888 19.1501C162.862 19.3435 162.814 19.6281 162.743 20.004L162.73 20.0736L162.432 20.4125C162.321 20.532 162.215 20.6646 162.093 20.8036C161.971 20.9427 161.865 21.0644 161.737 21.2208C160.21 23.059 159.176 24.1809 158.636 24.5865C158.311 24.8433 157.969 25.0778 157.613 25.2883C157.335 25.445 157.039 25.5661 156.731 25.6489L156.533 25.6989L156.303 25.7489L156.066 25.775C155.911 25.7497 155.763 25.6927 155.631 25.6077C155.501 25.5299 155.39 25.4245 155.305 25.2991C155.236 25.1811 155.18 25.0558 155.138 24.9254C155.077 24.7538 155.025 24.5908 154.984 24.43C154.946 24.3295 154.934 24.2212 154.949 24.115L155.053 24.028L155.27 23.9151C155.872 23.5882 156.43 23.1874 156.933 22.7222C157.468 22.2564 157.946 21.7283 158.356 21.1491C158.743 20.5494 158.908 20.0019 158.853 19.5065L158.801 19.2175C158.749 19.0269 158.661 18.8485 158.54 18.6923C158.419 18.5361 158.269 18.4052 158.097 18.3071C157.694 18.0881 157.221 18.0373 156.781 18.1658C156.577 18.2196 156.379 18.2924 156.19 18.3831C154.87 19.148 154.014 20.49 153.621 22.4093C153.559 22.746 153.519 23.0864 153.502 23.4284L153.437 23.4805C152.846 24.0063 152.178 24.5502 151.433 25.1123C150.788 25.6186 150.064 26.017 149.291 26.2921C149.179 26.3243 149.065 26.3497 148.95 26.3681L148.733 26.3812L148.489 26.3399C148.082 26.2058 147.741 25.9214 147.535 25.5447C147.322 25.1604 147.073 24.7967 146.792 24.4583C146.636 24.2704 146.427 24.1341 146.193 24.0672L145.975 24.0107L145.771 24.0302L145.465 24.0997C145.311 24.1395 145.161 24.1911 145.015 24.254C144.858 24.3285 144.711 24.4243 144.58 24.5386C144.422 24.6734 144.2 24.8798 143.928 25.1557C143.75 25.31 143.605 25.4425 143.494 25.5512L143.294 25.7206C143.29 25.6432 143.29 25.5656 143.294 25.4882C143.294 25.3491 143.294 25.1688 143.294 24.9515C143.294 24.4517 143.294 24.0824 143.279 23.839L143.216 23.5044L143.131 23.2719C142.833 22.7917 142.462 22.6201 142.012 22.7309C141.597 22.8711 141.223 23.1131 140.926 23.4349C140.462 23.9396 140.027 24.4698 139.622 25.0232C139.057 25.7692 138.497 26.5565 137.94 27.385L137.788 27.6023C137.68 27.7696 137.59 27.9021 137.521 27.9977L137.388 28.1955L137.328 28.2346V28.1846V28.1368C137.378 28.0058 137.417 27.8706 137.443 27.7327C137.497 27.5023 137.573 27.2438 137.66 26.9548C137.747 26.6658 137.797 26.4051 137.849 26.2508C137.901 26.0965 137.942 25.9922 137.973 25.9292L138.084 25.8184C138.308 25.7301 138.444 25.423 138.492 24.8972C138.552 24.5907 138.552 24.2758 138.492 23.9694C138.473 23.8579 138.425 23.7535 138.353 23.6662C138.281 23.579 138.187 23.512 138.082 23.4718C137.946 23.4066 137.793 23.389 137.647 23.4218C137.312 23.5109 137.039 23.9151 136.826 24.6386C136.66 25.1325 136.458 25.8105 136.219 26.6723C136.15 26.9352 136.08 27.1895 136.002 27.4458L135.754 27.737C135.11 28.5892 134.406 29.3951 133.649 30.1488C132.91 30.9133 132.125 31.6317 131.298 32.2999C130.926 32.6099 130.499 32.8485 130.04 33.0039C129.874 33.0589 129.694 33.0589 129.527 33.0039C129.247 32.8279 129.038 32.4737 128.897 31.937C128.76 31.3595 128.687 30.7685 128.68 30.1749C128.676 29.7592 128.694 29.3436 128.734 28.9299C128.775 28.4692 128.828 28.0607 128.888 27.7022L128.986 27.1873L129.343 26.9548C130.968 25.8771 132.794 23.621 134.82 20.1865C137.081 16.3711 138.305 13.4632 138.492 11.4628C138.514 11.1876 138.489 10.9109 138.42 10.6436L138.386 10.5133C138.345 10.3347 138.271 10.1652 138.168 10.0135C138.017 9.8355 137.822 9.70126 137.601 9.62482C137.38 9.54838 137.143 9.53254 136.915 9.57897L136.804 9.60721C136.444 9.72638 136.107 9.90563 135.807 10.1374C135.344 10.4725 134.923 10.8604 134.551 11.2933C133.269 12.7954 131.994 14.8907 130.727 17.5792C129.516 20.1068 128.563 22.7499 127.882 25.4686C127.841 25.6663 127.804 25.8119 127.776 25.9032L127.68 26.1204L127.548 26.2378L127.313 26.4963L127.218 26.8353V26.9722L127.287 27.1417L127.389 27.4393L127.415 27.724C127.407 27.8578 127.388 27.9908 127.359 28.1216L127.331 28.3975L127.211 28.441C126.663 28.6744 126.1 28.8689 125.525 29.0233C124.409 29.3144 123.254 29.4295 122.103 29.3644C121.82 29.3449 121.612 29.3253 121.484 29.3058L121.205 29.2297L121.069 29.0559C120.968 28.9332 120.85 28.8269 120.717 28.7408C120.59 28.649 120.451 28.5758 120.304 28.5236C120.128 28.5007 119.949 28.5163 119.78 28.5692L119.491 28.667L119.228 28.8538C118.896 29.1884 118.592 29.7468 118.307 30.5269C118.01 31.3656 117.806 32.234 117.696 33.1168C117.59 33.8691 117.619 34.6343 117.781 35.3765C117.966 36.087 118.35 36.5151 118.931 36.6563C119.091 36.6762 119.254 36.6644 119.411 36.6216C119.665 36.5486 119.901 36.4227 120.104 36.2522C120.369 35.9876 120.596 35.6861 120.775 35.357C120.989 34.9982 121.162 34.6162 121.29 34.2184C121.566 33.2294 121.64 32.1948 121.507 31.1765L121.455 30.8876V30.7746H121.631C121.731 30.7746 121.864 30.7898 122.025 30.8093C122.875 30.8605 123.729 30.8153 124.569 30.6746C124.912 30.6181 125.271 30.5377 125.655 30.44C126.193 30.2958 126.722 30.1239 127.241 29.925C127.224 30.6798 127.305 31.4336 127.483 32.1673C127.626 32.7605 127.891 33.3171 128.263 33.8013C128.453 34.0296 128.694 34.2099 128.967 34.3276C129.24 34.4454 129.537 34.4973 129.834 34.4792C130.023 34.4739 130.212 34.4484 130.396 34.4031C130.593 34.3471 130.784 34.2744 130.968 34.1859C131.519 33.9235 132.031 33.5857 132.489 33.182C133.057 32.7084 133.792 32.0109 134.694 31.0896C134.89 30.8723 135.068 30.6833 135.237 30.4899C135.203 30.642 135.172 30.7724 135.15 30.8767C135.117 31.024 135.094 31.1736 135.083 31.3243L135.129 31.6741C135.149 31.8245 135.216 31.9648 135.32 32.0754C135.424 32.186 135.56 32.2614 135.709 32.2912C135.855 32.3039 136.003 32.2884 136.143 32.2455L136.534 32.0022C136.742 31.7758 136.93 31.5323 137.097 31.2743C137.343 30.9158 137.703 30.3683 138.184 29.6404C138.849 28.6264 139.415 27.787 139.883 27.1221C140.351 26.4572 140.801 25.8575 141.234 25.323C141.397 25.1057 141.536 24.9341 141.654 24.795L141.817 24.6147V24.6364C141.824 24.7239 141.824 24.8119 141.817 24.8993V25.4708C141.787 25.8544 141.802 26.2401 141.862 26.6202L141.893 26.7288C141.935 26.9178 142.022 27.0941 142.145 27.2438C142.245 27.3509 142.366 27.4357 142.502 27.4926C142.637 27.5495 142.782 27.5772 142.929 27.574L143.179 27.5523L143.414 27.4697C143.612 27.3525 143.797 27.214 143.965 27.0569C144.237 26.8201 144.641 26.4551 145.178 25.9575L145.519 25.6598L145.715 25.5142L145.814 25.5468L145.954 25.7185C146.008 25.8054 146.077 25.9358 146.171 26.0922C146.644 26.9454 147.26 27.4893 148.018 27.724C148.265 27.8037 148.523 27.8419 148.783 27.837C149.057 27.8228 149.33 27.7784 149.595 27.7044C150.398 27.4687 151.149 27.0855 151.811 26.5746C152.453 26.0893 153.064 25.5823 153.645 25.0536C153.788 25.4953 153.978 25.92 154.212 26.3203C154.514 26.8766 155.181 27.1742 156.213 27.2134C156.464 27.213 156.713 27.1786 156.954 27.1112C157.222 27.032 157.485 26.9392 157.743 26.8331C158.158 26.6608 158.553 26.4421 158.919 26.1813C159.818 25.5052 160.645 24.7385 161.387 23.8933C161.68 23.5631 161.958 23.2415 162.234 22.9177C162.045 24.1041 161.958 24.8255 161.978 25.0753L162 25.1622C162.029 25.2864 162.095 25.3991 162.188 25.4863C162.281 25.5736 162.397 25.6317 162.523 25.6533H162.804L162.964 25.6011L163.182 25.436L163.301 25.2318L163.421 24.9319C163.79 23.918 164.114 23.0887 164.392 22.4441C164.671 21.7988 164.988 21.1712 165.344 20.5646C166.052 19.2609 166.606 18.557 166.997 18.4548C167.286 18.4448 167.573 18.5052 167.834 18.6308C168.412 18.8573 169.022 18.995 169.641 19.0393C170.075 19.0703 170.511 19.0262 170.93 18.9089C171.345 18.795 171.749 18.6422 172.136 18.4527C172.648 18.1007 172.93 17.7552 172.981 17.4162C173.006 17.2937 173.006 17.1672 172.981 17.0447H172.977ZM155.225 21.9726C155.44 21.2193 155.856 20.5387 156.429 20.004C156.597 19.8599 156.785 19.74 156.987 19.6477L157.204 19.5673H157.369L157.413 19.6477C157.452 19.7954 157.345 20.0518 157.093 20.419C156.765 20.8724 156.386 21.2878 155.966 21.6575L155.618 21.9356L155.353 22.1681L155.116 22.3224L155.225 21.9726ZM129.601 24.606C129.649 24.43 129.747 24.0976 129.899 23.6109C130.761 20.8961 131.893 18.2749 133.28 15.7866C134.63 13.3777 135.821 11.8358 136.854 11.1608L137.036 11.063V11.2238C137.071 11.6496 136.904 12.3985 136.534 13.4704C135.873 15.3695 134.735 17.6147 133.121 20.2061C131.817 22.305 130.701 23.8093 129.771 24.719L129.629 24.8472L129.545 24.9167C129.549 24.8123 129.569 24.7092 129.603 24.6104L129.601 24.606ZM120.097 32.7757C120.04 33.3635 119.884 33.9373 119.634 34.4727L119.445 34.7682L119.326 34.9746L119.202 35.1223L119.163 34.9724C119.054 34.5639 119.063 33.9295 119.185 33.069C119.283 32.2988 119.47 31.5426 119.743 30.8159L119.837 30.5573L119.969 31.0592C120.122 31.6164 120.164 32.198 120.093 32.7714" fill="#2B2C2C"/>
<path d="M62.4248 27.5197C62.6943 27.6892 62.9202 27.7153 63.0962 27.6023C63.3264 27.4946 63.5127 27.3113 63.6242 27.083C63.7198 26.8657 63.8089 26.6484 63.8871 26.4312C63.9262 26.2139 63.8219 26.0444 63.5764 25.8945C63.488 25.8229 63.3803 25.7791 63.267 25.7687C63.1537 25.7582 63.0398 25.7816 62.9398 25.8358C62.7373 25.9444 62.5716 26.1108 62.4639 26.3138C62.3631 26.5145 62.2731 26.7205 62.1945 26.9309C62.0772 27.1482 62.1554 27.3481 62.4248 27.5132" fill="white"/>
<path d="M74.9097 18.344C75.0611 18.1518 75.1813 17.9369 75.266 17.7074C75.3422 17.5368 75.3476 17.3431 75.2812 17.1685C75.2161 17.023 75.001 16.9512 74.6294 16.9339C74.2937 16.8794 73.9494 16.9342 73.6473 17.0903C73.3951 17.2815 73.1973 17.5355 73.0737 17.8269C72.9325 18.1332 72.7978 18.4657 72.6674 18.8285C72.537 19.1914 72.4501 19.4565 72.4045 19.6238C72.1633 20.2278 71.9069 20.9101 71.6331 21.6771C71.3594 22.4441 71.0943 23.2219 70.827 24.0041C70.5598 24.7863 70.3055 25.536 70.0622 26.2378L69.4277 28.0586C68.9818 29.2358 68.4548 30.3808 67.8503 31.4851C67.126 32.8336 66.3822 34.1373 65.6188 35.3961C64.9516 36.5021 64.2188 37.5673 63.4243 38.5858C62.7377 39.4549 62.2525 39.8749 61.9686 39.846C61.9175 39.3501 61.9227 38.8501 61.9838 38.3554C62.0558 37.5393 62.1799 36.7287 62.3553 35.9284C62.5492 35.0108 62.804 34.1071 63.118 33.2233C63.4047 32.3749 63.8014 31.5677 64.2978 30.8224C64.3634 30.7033 64.3901 30.5666 64.3741 30.4316C64.3582 30.2966 64.3005 30.1699 64.209 30.0694C64.1175 29.9688 63.9969 29.8993 63.864 29.8707C63.7311 29.8421 63.5925 29.8558 63.4678 29.9098C63.3453 29.9481 63.2322 30.0115 63.1356 30.0961C63.0391 30.1807 62.9613 30.2845 62.9072 30.4008C62.7899 30.666 62.6869 30.9373 62.5987 31.2135C62.1542 32.4076 61.7713 33.6238 61.4514 34.8572C61.3015 35.4243 61.1711 36.0001 61.0538 36.5824L60.9126 36.7171L60.4259 37.2973C60.0999 37.6782 59.7776 38.0672 59.459 38.4641C59.1374 38.8639 58.7941 39.2593 58.4312 39.6461C57.975 40.1675 57.41 40.7542 56.7386 41.3995C56.0885 42.0264 55.3798 42.5895 54.6223 43.0813C53.9252 43.5426 53.1453 43.8643 52.3257 44.0286C51.9318 44.1013 51.5272 44.0927 51.1368 44.0034C50.7463 43.9141 50.3783 43.746 50.0551 43.5093C49.4981 43.0968 49.0621 42.5422 48.7927 41.9036C48.565 41.3287 48.2227 40.806 47.7867 40.3674C47.5412 40.1371 47.2587 40.1502 46.9307 40.4131C46.5548 40.7224 46.2012 41.0579 45.8725 41.4169C45.493 41.8297 45.1229 42.2288 44.7622 42.6141C44.3972 43.0009 44.0408 43.2095 43.6888 43.2355C43.545 42.9945 43.4347 42.735 43.3607 42.4642C43.2565 42.1252 43.1435 41.7906 43.05 41.4517C42.9608 41.1572 42.8467 40.8708 42.7089 40.5956C42.6258 40.4025 42.4695 40.2501 42.2743 40.1719C42.0376 40.1359 41.7955 40.1714 41.5791 40.274C41.3161 40.3895 41.0845 40.5661 40.9033 40.789C40.9584 40.6615 41.0366 40.4486 41.138 40.1502C41.2401 39.8525 41.34 39.5461 41.44 39.2289C41.532 38.9476 41.5861 38.6554 41.6008 38.3598C41.6184 38.2629 41.6102 38.1631 41.577 38.0704C41.5439 37.9778 41.4868 37.8954 41.4118 37.8318C41.1358 37.6428 40.9098 37.6145 40.7338 37.721C40.5409 37.8543 40.3997 38.0499 40.334 38.275C40.2428 38.5293 40.1602 38.8161 40.0798 39.1268C39.9994 39.4375 39.9212 39.7047 39.843 39.9177C39.7648 40.1306 39.6735 40.3805 39.5714 40.689L39.4215 40.8302L38.9152 41.3952C38.6523 41.682 38.2808 42.0818 37.8049 42.5902C37.3291 43.0986 36.7794 43.6179 36.1666 44.1524C35.5646 44.6777 34.9319 45.1667 34.272 45.6169C33.7179 46.0141 33.0999 46.3132 32.4446 46.5012C32.2125 46.5796 31.9668 46.61 31.7225 46.5905C31.4783 46.5711 31.2405 46.5023 31.0236 46.3883C30.6441 46.1623 30.4116 45.6205 30.3262 44.763C30.3162 44.4595 30.338 44.1559 30.3913 43.8569C30.4478 43.531 30.4935 43.2051 30.5304 42.8748C30.5651 42.5687 30.5651 42.2597 30.5304 41.9536C30.4994 41.6757 30.3771 41.4159 30.1828 41.2148C30.1192 41.1703 30.0469 41.1395 29.9707 41.1245C29.8946 41.1095 29.8161 41.1107 29.7403 41.1279C29.6646 41.1451 29.5933 41.1779 29.5311 41.2243C29.4688 41.2708 29.4169 41.3297 29.3788 41.3973C29.1616 41.6966 28.9156 41.9738 28.6444 42.2252C28.3747 41.9741 28.0638 41.7712 27.7253 41.6255C27.4016 41.4864 27.0083 41.5647 26.5477 41.8428C25.7709 42.3841 25.1128 43.0784 24.6139 43.883L24.3727 44.1655C23.6059 45.0343 22.7921 45.8605 21.9348 46.6403C20.8425 47.6334 19.698 48.5676 18.5062 49.4389C17.2142 50.3878 15.8724 51.2668 14.4865 52.0723C13.1494 52.8598 11.7591 53.5531 10.3256 54.1473C9.0956 54.6711 7.79805 55.0192 6.47106 55.1815C5.26299 55.3134 4.24105 55.1613 3.40525 54.7253C2.48399 54.2661 1.89733 53.4353 1.64529 52.2331C1.39611 50.9637 1.34699 49.6631 1.49971 48.3785C1.64976 47.0223 1.90179 45.6794 2.25367 44.361C2.49924 43.356 2.83073 42.3739 3.24446 41.4256C4.27437 38.9283 5.36077 36.5969 6.50365 34.4314C7.64654 32.2658 8.85751 30.1879 10.1366 28.1976C11.4229 26.203 12.799 24.2207 14.2649 22.2507C15.7308 20.2807 17.3133 18.2216 19.0124 16.0734C19.7164 15.184 20.6652 14.0194 21.8588 12.5796C23.0524 11.1398 24.3408 9.67384 25.7242 8.18185C26.087 7.7951 26.7237 7.16933 27.6297 6.29804C28.5591 5.41189 29.5447 4.58668 30.5804 3.82758C31.5615 3.09698 32.6247 2.4837 33.7483 2.00026C34.7956 1.5657 35.6546 1.5418 36.3252 1.92855C37.0857 2.37615 37.3899 3.2402 37.2378 4.5207C37.0857 5.8012 36.6309 7.30549 35.8733 9.03359C34.9984 10.9772 33.9817 12.8537 32.8314 14.6481C31.5467 16.6862 30.1527 18.6533 28.6553 20.5407C27.1907 22.3964 25.6314 24.1754 23.9838 25.8706C22.5906 27.3319 21.0726 28.6689 19.447 29.8663C19.3494 29.9337 19.2726 30.0269 19.225 30.1355C19.1774 30.2441 19.161 30.3638 19.1776 30.4812C19.1854 30.5981 19.2387 30.7072 19.326 30.7851C19.4133 30.8631 19.5278 30.9038 19.6447 30.8984C20.1771 30.9162 20.7069 30.816 21.1961 30.6051C21.7151 30.3646 22.1972 30.0515 22.628 29.6751C23.3522 29.0957 24.3763 28.0651 25.7003 26.5832C27.0242 25.1014 28.4083 23.4073 29.8525 21.5011C31.301 19.5948 32.7112 17.5669 34.0829 15.4173C35.3563 13.4604 36.457 11.3964 37.3725 9.2487C38.188 7.28594 38.6349 5.52163 38.7131 3.95577C38.7914 2.38991 38.2641 1.23978 37.1314 0.505374C36.5465 0.105499 35.8353 -0.0661126 35.1324 0.023014C34.3321 0.123257 33.5513 0.342981 32.8162 0.674852C31.9631 1.057 31.1543 1.53132 30.4044 2.08934C29.6019 2.68034 28.8335 3.28365 28.099 3.89928C27.3646 4.5149 26.7034 5.10807 26.1153 5.67879C25.5286 6.24807 25.0694 6.7029 24.7377 7.04331C22.7098 9.10167 20.5645 11.4881 18.3019 14.2027C16.0393 16.9172 13.8535 19.7679 11.7444 22.7548C9.66031 25.6971 7.72623 28.7429 5.94959 31.8805C4.32015 34.713 2.934 37.6786 1.80608 40.7455C1.25396 42.2415 0.818106 43.7779 0.502401 45.341C0.17209 46.8902 0.00387672 48.4697 0.000482624 50.0538C-0.0117523 51.4103 0.208722 52.7588 0.652321 54.0408C1.07384 55.2112 1.80318 56.0159 2.84033 56.4548C4.43371 57.1385 6.27768 57.1726 8.37225 56.5569C10.5848 55.8843 12.705 54.9391 14.6842 53.7432C16.8014 52.4873 18.798 51.0384 20.6485 49.415C21.7277 48.4676 22.6852 47.5724 23.521 46.7294C23.5066 46.8997 23.5498 47.07 23.6435 47.2129C23.7372 47.3559 23.8762 47.4633 24.0381 47.5181C24.4857 47.6702 25.3331 47.2697 26.5803 46.3166C26.9792 45.9961 27.3607 45.6545 27.7232 45.2932C28.0404 44.9759 28.438 44.6109 28.916 44.2068C29.0348 45.4568 29.3245 46.3354 29.7851 46.8424C29.9936 47.0856 30.2499 47.2834 30.5381 47.4232C30.8263 47.563 31.1403 47.6419 31.4604 47.655C32.2056 47.6658 32.9411 47.4847 33.5962 47.1292C34.3855 46.7254 35.1425 46.2612 35.8603 45.7408C36.5961 45.2135 37.2918 44.6325 37.9418 44.0025C38.2721 43.681 38.5741 43.3782 38.8479 43.0943L38.7914 43.3116C38.6326 43.8819 38.5142 44.4628 38.4372 45.0498C38.3764 45.5582 38.4524 45.8494 38.6653 45.9298C38.7501 45.9537 38.8652 45.9819 39.0086 46.0124C39.0632 46.0321 39.1226 46.0341 39.1784 46.0181C39.2342 46.0021 39.2835 45.9689 39.3194 45.9233C39.5766 45.4637 39.7947 44.9833 39.9712 44.4871C40.1943 43.8903 40.4181 43.3514 40.6426 42.8705C40.7612 42.5572 40.9398 42.2701 41.1684 42.0253C41.2218 41.9659 41.2932 41.9256 41.3717 41.9107C41.4502 41.8958 41.5315 41.907 41.603 41.9427C41.7585 42.0446 41.8726 42.1987 41.9245 42.3773C42.0049 42.5946 42.0897 42.8249 42.1701 43.0465C42.32 43.4159 42.5199 43.8461 42.7741 44.3306C42.8631 44.5509 43.0235 44.7348 43.2296 44.853C43.4356 44.9712 43.6754 45.0168 43.9105 44.9825C44.2994 44.8774 44.6511 44.6651 44.9252 44.3697C45.2968 44.0204 45.6438 43.6458 45.9638 43.2486C46.2304 42.9109 46.5162 42.5888 46.8198 42.2838C47.0719 42.0361 47.2544 41.9818 47.3543 42.1187C47.9106 43.3659 48.6841 44.2415 49.6749 44.7456C50.6607 45.2504 51.7957 45.3823 52.8711 45.1172C54.1922 44.8294 55.4089 44.1845 56.3888 43.2529C57.4028 42.3056 58.3335 41.3539 59.1809 40.3979C59.7023 39.8221 60.2021 39.2593 60.6736 38.7118L60.6975 38.6857C60.629 39.1922 60.6481 39.7067 60.754 40.2067C60.7862 40.4664 60.9135 40.705 61.1113 40.8763C61.3091 41.0477 61.5635 41.1397 61.8251 41.1344C62.3597 41.2322 62.9289 40.9823 63.5286 40.3913C64.1643 39.7606 64.7404 39.0726 65.2495 38.3359C65.797 37.5566 66.2939 36.7758 66.74 35.9936C67.1861 35.2114 67.5338 34.6385 67.7829 34.2749C66.0853 40.3849 64.9671 46.6412 64.4434 52.961C64.3309 53.7878 64.4105 54.6294 64.6758 55.4206C65.017 56.3853 65.2647 56.9545 65.4168 57.124C65.5689 57.2935 65.634 56.7655 65.5906 55.5444C65.6096 53.7658 65.7387 51.9902 65.9773 50.2276C66.2337 48.1533 66.5836 45.9305 67.0268 43.5593C67.4701 41.188 67.9908 38.7755 68.5891 36.3217C69.1945 33.8592 69.8297 31.5133 70.4946 29.284C71.1595 27.0547 71.8439 25.0268 72.5479 23.2002C73.104 21.6937 73.7926 20.2395 74.6055 18.8546C74.6921 18.6748 74.7993 18.5056 74.9249 18.3505L74.9097 18.344ZM27.9665 43.5984C27.8361 43.8083 27.6681 43.9924 27.4711 44.1416C27.1691 44.4197 26.8388 44.7087 26.4781 45.0107C26.1175 45.3127 25.7763 45.5908 25.4439 45.8342C25.1115 46.0775 24.9029 46.1666 24.8094 46.1036C24.7138 46.0037 24.7529 45.8059 24.9376 45.5126C25.1522 45.1737 25.3888 44.8493 25.646 44.5414C25.9218 44.2078 26.2194 43.8927 26.5368 43.5984C26.841 43.3232 27.0626 43.132 27.2017 43.0248C27.3321 42.8814 27.5059 42.8987 27.7188 43.0747C27.9317 43.2507 28.0121 43.4246 27.9665 43.5919" fill="white"/>
<path d="M94.2563 30.7333C94.204 30.621 94.124 30.5238 94.0238 30.4508C93.9607 30.3986 93.8877 30.3598 93.8091 30.3367C93.7306 30.3137 93.6482 30.3068 93.5669 30.3165C93.4856 30.3263 93.4071 30.3525 93.3363 30.3935C93.2654 30.4345 93.2036 30.4895 93.1547 30.5551L92.6702 31.1265C92.3523 31.5072 92.0136 31.8699 91.6555 32.2129C91.2035 32.6562 90.7038 33.1096 90.1562 33.5731C89.6084 34.0333 89.0338 34.4607 88.4354 34.8529C87.8963 35.2172 87.312 35.5093 86.6971 35.722C86.3286 35.8372 85.9337 35.8372 85.5651 35.722C85.2263 35.6093 84.9219 35.4118 84.6808 35.1484C84.4294 34.8757 84.2279 34.5609 84.0855 34.2184C83.9448 33.8834 83.8568 33.5287 83.8247 33.1668C84.5298 32.5984 85.1881 31.9742 85.7933 31.3004C86.4006 30.6456 86.9327 29.9248 87.3794 29.1515C87.7373 28.5761 87.9491 27.9219 87.9965 27.2459C88.0095 26.6868 87.7343 26.2834 87.1708 26.0357C86.7363 25.8401 86.2322 25.8662 85.6629 26.1117C85.0457 26.3996 84.5058 26.8301 84.0876 27.3676C83.5639 28.0311 83.1636 28.7832 82.9056 29.5882C82.5902 30.5303 82.4741 31.5277 82.5645 32.5171C81.8663 33.2414 81.1645 34.0381 80.4591 34.9072C79.7507 35.7763 79.0772 36.6085 78.4362 37.4081C77.7952 38.2077 77.2086 38.8943 76.6849 39.4722C76.1613 40.0502 75.7245 40.3674 75.3812 40.4348C74.8685 40.2523 74.6251 39.5852 74.6403 38.4315C74.6919 37.0138 74.8715 35.6037 75.177 34.2184C75.5189 32.5642 75.9701 30.7695 76.5307 28.8342C77.0912 26.899 77.654 25.0645 78.2189 23.3306C78.7838 21.5923 79.2966 20.0641 79.7572 18.746C80.2179 17.4278 80.5271 16.5587 80.685 16.1386C80.8082 15.8999 80.8897 15.642 80.9262 15.376C80.9588 15.2602 80.9502 15.1366 80.9019 15.0264C80.8536 14.9163 80.7684 14.8263 80.6611 14.7719C80.6063 14.7352 80.5446 14.7101 80.4797 14.6983C80.4148 14.6865 80.3481 14.6882 80.2839 14.7033C80.2197 14.7184 80.1593 14.7465 80.1064 14.786C80.0536 14.8255 80.0094 14.8754 79.9767 14.9327C79.7902 15.1855 79.6436 15.4654 79.5421 15.7627C79.3611 16.2712 79.0301 17.2373 78.5492 18.6612C78.0683 20.0851 77.5251 21.7082 76.9196 23.5305C76.3141 25.3542 75.7282 27.2829 75.1618 29.3166C74.5954 31.3503 74.1609 33.2334 73.8581 34.9659C73.5737 36.4289 73.46 37.92 73.5192 39.4092C73.5974 40.6463 73.9935 41.3705 74.7077 41.582C75.3074 41.7884 75.9657 41.5646 76.6958 40.9085C77.4921 40.1819 78.239 39.4031 78.9316 38.5771C79.6921 37.6761 80.4033 36.7744 81.0653 35.8719C81.7272 34.9695 82.3067 34.3531 82.8035 34.0229C83.0038 34.8799 83.4858 35.645 84.1724 36.1957C84.5152 36.48 84.919 36.6815 85.3524 36.7843C85.7858 36.8872 86.237 36.8888 86.6711 36.7888C87.2847 36.6561 87.872 36.4226 88.4093 36.0979C89.0516 35.7321 89.67 35.3257 90.2605 34.8811C90.8611 34.4362 91.437 33.9589 91.9857 33.4514C92.4601 33.0152 92.9077 32.5508 93.3263 32.0608L93.7913 31.5242C93.9347 31.359 94.076 31.2048 94.2085 31.0592C94.2557 31.0184 94.2871 30.9623 94.297 30.9007C94.307 30.8391 94.2948 30.776 94.2628 30.7224L94.2563 30.7333ZM83.8921 30.0619C84.0963 29.5196 84.357 29.0003 84.6699 28.5127C84.9433 28.0762 85.2785 27.6817 85.6651 27.3415C85.9287 27.0873 86.2512 26.9021 86.6037 26.8027C86.9514 26.7375 87.0622 26.907 86.9383 27.3068C86.762 27.8136 86.5131 28.2923 86.1996 28.7278C85.7999 29.3091 85.3691 29.8683 84.9089 30.403C84.5238 30.863 84.1101 31.2984 83.6704 31.7067C83.6069 31.146 83.6815 30.5784 83.8877 30.0532" fill="white"/>
</svg>
